<svg id="Calque_1" data-name="Calque 1" xmlns="http://www.w3.org/2000/svg" viewBox="0 0 67.6 251.29"><defs><style>.cls-1{fill:#1d1d1b;}</style></defs><path class="cls-1" d="M212.65,611.18C205.78,606,197.86,597.06,193,582c0,0,32.31,25.71,0-37,0,0-9-14,0-49,0,0,30.31,81.14,15-13.69q-.42-2.62-1-5.22c-1.73-7.65-6.89-37,7.94-64.54a53.33,53.33,0,0,0,5.36-14.19A61.45,61.45,0,0,0,218,364s19.11,21.95,3,54,6.46,59,6.46,59,12,14.08,6.44,62.39c-.45,3.93-.09,8,2,11.31,2.82,4.36,6.8,4.67,8.05-24.7V506s32.16,72.78-6.29,104.67A20.2,20.2,0,0,1,212.65,611.18Z" transform="translate(-189 -364)"/></svg>